# xmcd
#
# Track frame offsets:
#	150
#	9649
#	27188
#	41960
#	51417
#	63388
#
# Disc length: 1002 seconds
#
# Revision: 0
# Processed by: cddbd v1.5.2PL0 Copyright (c) Steve Scherf et al.
# Submitted via: dBpowerAMP V4.0
#
DISCID=4f03e806
DTITLE=Samantha King - A Hometown Christmas
DYEAR=1900
DGENRE=Country
TTITLE0=Jingle Bell Rock
TTITLE1=Have Yourself A Merry Little Christmas
TTITLE2=White Christmas
TTITLE3=Rockin' Around the Christmas Tree
TTITLE4=Santa Claus is Coming to Town
TTITLE5=I Saw Mommy Kissing Santa Claus
EXTD=
EXTT0=
EXTT1=
EXTT2=
EXTT3=
EXTT4=
EXTT5=
PLAYORDER=
